<svg width="96" height="16" viewBox="0 0 96 16" fill="none" xmlns="http://www.w3.org/2000/svg">
<g clip-path="url(#clip0_29_167)">
<path d="M7.31185 1.0868C7.57296 0.484638 8.42691 0.484639 8.68803 1.0868L10.0916 4.32364C10.309 4.82487 10.7817 5.16829 11.3255 5.22011L14.8377 5.55478C15.4911 5.61704 15.7549 6.42919 15.2629 6.86361L12.6183 9.19875C12.2087 9.56036 12.0282 10.116 12.147 10.6493L12.914 14.093C13.0567 14.7336 12.3658 15.2355 11.8006 14.9019L8.76252 13.1082C8.29207 12.8305 7.70781 12.8305 7.23735 13.1082L4.19924 14.9019C3.63406 15.2355 2.9432 14.7336 3.08589 14.093L3.85292 10.6493C3.97169 10.116 3.79114 9.56036 3.38161 9.19875L0.736932 6.86361C0.244934 6.42919 0.508819 5.61704 1.1622 5.55478L4.67435 5.22011C5.21821 5.16829 5.69089 4.82487 5.90824 4.32364L7.31185 1.0868Z" fill="#FEBB35"/>
</g>
<g clip-path="url(#clip1_29_167)">
<path d="M27.3118 1.0868C27.573 0.484638 28.4269 0.484639 28.688 1.0868L30.0916 4.32364C30.309 4.82487 30.7817 5.16829 31.3255 5.22011L34.8377 5.55478C35.4911 5.61704 35.7549 6.42919 35.2629 6.86361L32.6183 9.19875C32.2087 9.56036 32.0282 10.116 32.147 10.6493L32.914 14.093C33.0567 14.7336 32.3658 15.2355 31.8006 14.9019L28.7625 13.1082C28.2921 12.8305 27.7078 12.8305 27.2373 13.1082L24.1992 14.9019C23.6341 15.2355 22.9432 14.7336 23.0859 14.093L23.8529 10.6493C23.9717 10.116 23.7911 9.56036 23.3816 9.19875L20.7369 6.86361C20.2449 6.42919 20.5088 5.61704 21.1622 5.55478L24.6743 5.22011C25.2182 5.16829 25.6909 4.82487 25.9082 4.32364L27.3118 1.0868Z" fill="#FEBB35"/>
</g>
<g clip-path="url(#clip2_29_167)">
<path d="M47.3118 1.0868C47.573 0.484638 48.4269 0.484639 48.688 1.0868L50.0916 4.32364C50.309 4.82487 50.7817 5.16829 51.3255 5.22011L54.8377 5.55478C55.4911 5.61704 55.7549 6.42919 55.2629 6.86361L52.6183 9.19875C52.2087 9.56036 52.0282 10.116 52.147 10.6493L52.914 14.093C53.0567 14.7336 52.3658 15.2355 51.8006 14.9019L48.7625 13.1082C48.2921 12.8305 47.7078 12.8305 47.2373 13.1082L44.1992 14.9019C43.6341 15.2355 42.9432 14.7336 43.0859 14.093L43.8529 10.6493C43.9717 10.116 43.7911 9.56036 43.3816 9.19875L40.7369 6.86361C40.2449 6.42919 40.5088 5.61704 41.1622 5.55478L44.6743 5.22011C45.2182 5.16829 45.6909 4.82487 45.9082 4.32364L47.3118 1.0868Z" fill="#FEBB35"/>
</g>
<g clip-path="url(#clip3_29_167)">
<path d="M67.3118 1.0868C67.573 0.484638 68.4269 0.484639 68.688 1.0868L70.0916 4.32364C70.309 4.82487 70.7817 5.16829 71.3255 5.22011L74.8377 5.55478C75.4911 5.61704 75.7549 6.42919 75.2629 6.86361L72.6183 9.19875C72.2087 9.56036 72.0282 10.116 72.147 10.6493L72.914 14.093C73.0567 14.7336 72.3658 15.2355 71.8006 14.9019L68.7625 13.1082C68.2921 12.8305 67.7078 12.8305 67.2373 13.1082L64.1992 14.9019C63.6341 15.2355 62.9432 14.7336 63.0859 14.093L63.8529 10.6493C63.9717 10.116 63.7911 9.56036 63.3816 9.19875L60.7369 6.86361C60.2449 6.42919 60.5088 5.61704 61.1622 5.55478L64.6743 5.22011C65.2182 5.16829 65.6909 4.82487 65.9082 4.32364L67.3118 1.0868Z" fill="#FEBB35"/>
</g>
<g clip-path="url(#clip4_29_167)">
<path d="M87.3118 1.0868C87.573 0.484638 88.4269 0.484639 88.688 1.0868L90.0916 4.32364C90.309 4.82487 90.7817 5.16829 91.3255 5.22011L94.8377 5.55478C95.4911 5.61704 95.7549 6.42919 95.2629 6.86361L92.6183 9.19875C92.2087 9.56036 92.0282 10.116 92.147 10.6493L92.914 14.093C93.0567 14.7336 92.3658 15.2355 91.8006 14.9019L88.7625 13.1082C88.2921 12.8305 87.7078 12.8305 87.2373 13.1082L84.1992 14.9019C83.6341 15.2355 82.9432 14.7336 83.0859 14.093L83.8529 10.6493C83.9717 10.116 83.7911 9.56036 83.3816 9.19875L80.7369 6.86361C80.2449 6.42919 80.5088 5.61704 81.1622 5.55478L84.6743 5.22011C85.2182 5.16829 85.6909 4.82487 85.9082 4.32364L87.3118 1.0868Z" fill="#D2D1D1"/>
</g>
<defs>
<clipPath id="clip0_29_167">
<rect width="16" height="16" fill="white"/>
</clipPath>
<clipPath id="clip1_29_167">
<rect width="16" height="16" fill="white" transform="translate(20)"/>
</clipPath>
<clipPath id="clip2_29_167">
<rect width="16" height="16" fill="white" transform="translate(40)"/>
</clipPath>
<clipPath id="clip3_29_167">
<rect width="16" height="16" fill="white" transform="translate(60)"/>
</clipPath>
<clipPath id="clip4_29_167">
<rect width="16" height="16" fill="white" transform="translate(80)"/>
</clipPath>
</defs>
</svg>
