<svg width="56" height="56" viewBox="0 0 56 56" fill="none" xmlns="http://www.w3.org/2000/svg">
<path d="M7.16182 14.3247C9.11285 14.3247 10.7001 12.7375 10.7001 10.7864C10.7001 8.83541 9.11285 7.24805 7.16182 7.24805C5.21079 7.24805 3.62354 8.83541 3.62354 10.7864C3.62354 12.7375 5.21079 14.3247 7.16182 14.3247ZM7.16182 8.88878C8.20821 8.88878 9.05947 9.74005 9.05947 10.7865C9.05947 11.8328 8.20821 12.6842 7.16182 12.6842C6.11543 12.6842 5.26416 11.8329 5.26416 10.7865C5.26416 9.74005 6.11543 8.88878 7.16182 8.88878Z" fill="#19BCE4"/>
<path d="M7.16182 23.3847C9.11285 23.3847 10.7001 21.7974 10.7001 19.8464C10.7001 17.8954 9.11285 16.3081 7.16182 16.3081C5.21079 16.3081 3.62354 17.8955 3.62354 19.8465C3.62354 21.7975 5.21079 23.3847 7.16182 23.3847ZM7.16182 17.9487C8.20821 17.9487 9.05947 18.8 9.05947 19.8465C9.05947 20.8928 8.20821 21.7441 7.16182 21.7441C6.11543 21.7441 5.26416 20.8929 5.26416 19.8465C5.26416 18.8 6.11543 17.9487 7.16182 17.9487Z" fill="#19BCE4"/>
<path d="M53.4297 3.62392H50.5641V1.72627C50.5641 0.774375 49.7896 0 48.8378 0H7.1622C6.21042 0 5.43594 0.774375 5.43594 1.72627V3.62392H2.57031C1.15303 3.62392 0 4.77695 0 6.19423V9.1455C0 9.59864 0.367281 9.96581 0.820312 9.96581C1.27334 9.96581 1.64062 9.59864 1.64062 9.1455V6.19423C1.64062 5.68159 2.05767 5.26455 2.57031 5.26455H11.7542C12.2668 5.26455 12.6839 5.68159 12.6839 6.19423V14.4958H12.5981C12.1451 14.4958 11.7778 14.863 11.7778 15.3161C11.7778 15.7693 12.1451 16.1364 12.5981 16.1364H12.6839V24.438C12.6839 24.9506 12.2668 25.3677 11.7542 25.3677H2.57031C2.05767 25.3677 1.64062 24.9506 1.64062 24.438V16.1364H1.72627C2.1793 16.1364 2.54658 15.7693 2.54658 15.3161C2.54658 14.863 2.1793 14.4958 1.72627 14.4958H1.64062V12.4269C1.64062 11.9737 1.27334 11.6065 0.820312 11.6065C0.367281 11.6065 0 11.9737 0 12.4269V24.438C0 25.8553 1.15303 27.0083 2.57031 27.0083H4.52987V28.9916H3.53828C2.58639 28.9916 1.81202 29.766 1.81202 30.7179V32.5299C1.81202 33.4818 2.5865 34.2561 3.53828 34.2561H3.62392V40.4901L0.086625 47.5649C0.0837812 47.5707 0.0817031 47.5766 0.0789687 47.5824C0.0715313 47.5981 0.0644219 47.614 0.0579687 47.6303C0.0539219 47.6405 0.0503125 47.6507 0.0468125 47.6609C0.0416719 47.6756 0.03675 47.6903 0.0324844 47.7054C0.028875 47.718 0.0258125 47.7306 0.02275 47.7432C0.0196875 47.756 0.0168437 47.7688 0.0144375 47.7818C0.0115937 47.797 0.00940625 47.8122 0.0074375 47.8274C0.00601563 47.8383 0.00470312 47.8494 0.00371875 47.8604C0.0021875 47.8776 0.00153125 47.8948 0.00109375 47.9119C0.000875 47.9187 0 47.9252 0 47.9317V50.6497C0 51.6016 0.774375 52.3761 1.72627 52.3761H1.81202V54.2737C1.81202 55.2256 2.58639 56 3.53828 56H36.3252C36.7782 56 37.1455 55.6328 37.1455 55.1797C37.1455 54.7265 36.7782 54.3594 36.3252 54.3594H30.628C30.6294 54.3308 30.6323 54.3026 30.6323 54.2737V52.3761H52.5474V54.2737C52.5474 54.321 52.5089 54.3594 52.4617 54.3594H39.6064C39.1534 54.3594 38.7861 54.7265 38.7861 55.1797C38.7861 55.6328 39.1534 56 39.6064 56H52.4617C53.4136 56 54.188 55.2256 54.188 54.2737V52.3761H54.2737C55.2256 52.3761 56 51.6016 56 50.6497V47.9317C56 47.9252 55.9991 47.9187 55.999 47.9122C55.9986 47.895 55.9979 47.8778 55.9964 47.8606C55.9954 47.8495 55.994 47.8385 55.9927 47.8276C55.9907 47.8124 55.9885 47.7972 55.9857 47.782C55.9833 47.769 55.9804 47.7562 55.9774 47.7434C55.9744 47.7307 55.9712 47.7181 55.9676 47.7057C55.9634 47.6906 55.9584 47.6758 55.9533 47.6611C55.9497 47.6509 55.9461 47.6407 55.942 47.6305C55.9356 47.6142 55.9285 47.5984 55.921 47.5826C55.9183 47.5768 55.9162 47.5708 55.9134 47.5651L52.3761 40.4904V34.2563H52.4617C53.4136 34.2563 54.188 33.4819 54.188 32.53V30.718C54.188 29.7661 53.4136 28.9917 52.4617 28.9917H51.4701V27.0084H53.4297C54.847 27.0084 56 25.8554 56 24.4381V6.19423C56 4.77695 54.847 3.62392 53.4297 3.62392ZM7.07656 3.62392V1.72627C7.07656 1.67902 7.11506 1.64062 7.1622 1.64062H48.8377C48.8849 1.64062 48.9233 1.67912 48.9233 1.72627V3.62392H7.07656ZM46.2055 27.0084V28.9917H39.6922V27.0084H44.2458H46.1197H46.2055ZM53.8524 47.1114H30.6323V46.1198C30.6323 44.6684 29.4515 43.4875 28 43.4875H13.5042C12.0527 43.4875 10.8719 44.6684 10.8719 46.1198V47.1114H2.14758L4.95119 41.5041H51.0487L53.8524 47.1114ZM28.9917 39.8636H27.0083V37.8802H28.9917V39.8636ZM29.812 36.2395H26.188H18.8781C18.3655 36.2395 17.9484 35.8224 17.9484 35.3099V20.6901C17.9484 20.1775 18.3655 19.7605 18.8781 19.7605H37.1219C37.6345 19.7605 38.0516 20.1775 38.0516 20.6901V35.3099C38.0516 35.8224 37.6345 36.2395 37.1219 36.2395H29.812ZM39.6922 25.3678V23.3844H41.6755V24.4381C41.6755 24.7659 41.7378 25.0793 41.8502 25.3678H39.6922ZM41.8503 5.26455C41.7379 5.55308 41.6756 5.86644 41.6756 6.19423V21.7437H39.6922V20.6901C39.6922 19.2729 38.5392 18.1198 37.1219 18.1198H18.8781C17.4608 18.1198 16.3078 19.2729 16.3078 20.6901V21.7437H14.3245V6.19423C14.3245 5.86644 14.2622 5.55308 14.1498 5.26455H41.8503ZM14.3245 24.4381V23.3844H16.3078V25.3678H14.1497C14.2622 25.0791 14.3245 24.7659 14.3245 24.4381ZM11.7542 27.0084H16.3078V28.9917H9.79453V27.0084H9.88028H11.7542ZM6.1705 27.0084H8.15391V28.9917H6.1705V27.0084ZM3.45264 32.53V30.718C3.45264 30.6707 3.49114 30.6323 3.53828 30.6323H16.3078V32.6156H3.53828C3.49103 32.6156 3.45264 32.5772 3.45264 32.53ZM16.3078 34.2563V35.3099C16.3078 36.7271 17.4608 37.8802 18.8781 37.8802H25.3677V39.8636H5.26455V34.2563H16.3078ZM1.64062 50.6497V48.752H10.8719V50.7355H1.72627C1.67912 50.7355 1.64062 50.6971 1.64062 50.6497ZM3.45264 54.2737V52.3761H10.8719V54.2737C10.8719 54.3026 10.8748 54.3308 10.8763 54.3594H3.53828C3.49103 54.3594 3.45264 54.3209 3.45264 54.2737ZM19.7603 54.3594V52.3761H21.7437V54.3594H19.7603ZM22.5641 50.7355H18.9401H18.0031C17.9729 50.7355 17.9484 50.7108 17.9484 50.6808V48.8067C17.9484 48.7767 17.9729 48.752 18.0031 48.752H23.5011C23.5313 48.752 23.5558 48.7767 23.5558 48.8067V50.6808C23.5558 50.7108 23.5313 50.7355 23.5011 50.7355H22.5641ZM23.3844 54.3594V52.3761H23.5011C24.4359 52.3761 25.1964 51.6156 25.1964 50.6808V48.8067C25.1964 47.8719 24.4359 47.1114 23.5011 47.1114H18.0031C17.0683 47.1114 16.3078 47.8719 16.3078 48.8067V50.6808C16.3078 51.6156 17.0683 52.3761 18.0031 52.3761H18.1197V54.3594H12.5981C12.5509 54.3594 12.5125 54.3209 12.5125 54.2737V46.1198C12.5125 45.573 12.9573 45.1281 13.5042 45.1281H28C28.5468 45.1281 28.9917 45.573 28.9917 46.1198V54.2737C28.9917 54.321 28.9532 54.3594 28.906 54.3594H23.3844ZM54.3594 50.6497C54.3594 50.6971 54.3209 50.7355 54.2737 50.7355H30.6323V48.752H54.3594V50.6497ZM50.7355 39.8636H30.6323V37.8802H37.1219C38.5392 37.8802 39.6922 36.7271 39.6922 35.3099V34.2563H50.7355V39.8636ZM52.5474 30.718V32.53C52.5474 32.5772 52.5089 32.6156 52.4617 32.6156H39.6922V30.6322H52.4617C52.5089 30.6322 52.5474 30.6707 52.5474 30.718ZM49.8294 28.9916H47.8461V27.0083H49.8294V28.9916ZM53.4297 25.3678H50.6497H47.0258H46.1197H44.2458C43.7332 25.3678 43.3161 24.9507 43.3161 24.4381V16.1365H43.4019C43.8549 16.1365 44.2222 15.7694 44.2222 15.3162C44.2222 14.8631 43.8549 14.4959 43.4019 14.4959H43.3161V6.19434C43.3161 5.6817 43.7332 5.26466 44.2458 5.26466H53.4297C53.9423 5.26466 54.3594 5.6817 54.3594 6.19434V14.4959H54.2737C53.8207 14.4959 53.4534 14.8631 53.4534 15.3162C53.4534 15.7694 53.8207 16.1365 54.2737 16.1365H54.3594V24.4381C54.3594 24.9506 53.9423 25.3678 53.4297 25.3678Z" fill="#19BCE4"/>
<path d="M48.8371 7.24805C46.8861 7.24805 45.2988 8.83541 45.2988 10.7864C45.2988 12.7375 46.8861 14.3247 48.8371 14.3247C50.7881 14.3247 52.3754 12.7375 52.3754 10.7864C52.3754 8.83541 50.788 7.24805 48.8371 7.24805ZM48.8371 12.684C47.7907 12.684 46.9395 11.8327 46.9395 10.7863C46.9395 9.73994 47.7907 8.88856 48.8371 8.88856C49.8835 8.88856 50.7348 9.73983 50.7348 10.7863C50.7348 11.8327 49.8834 12.684 48.8371 12.684Z" fill="#19BCE4"/>
<path d="M48.8371 16.3081C46.8861 16.3081 45.2988 17.8955 45.2988 19.8465C45.2988 21.7975 46.8861 23.3848 48.8371 23.3848C50.7881 23.3848 52.3754 21.7975 52.3754 19.8465C52.3754 17.8955 50.788 16.3081 48.8371 16.3081ZM48.8371 21.744C47.7907 21.744 46.9395 20.8928 46.9395 19.8464C46.9395 18.8 47.7907 17.9486 48.8371 17.9486C49.8835 17.9486 50.7348 18.7999 50.7348 19.8464C50.7348 20.8928 49.8834 21.744 48.8371 21.744Z" fill="#19BCE4"/>
<path d="M34.3731 21.7441H21.6272C20.6924 21.7441 19.9319 22.5046 19.9319 23.4395V32.5613C19.9319 33.4962 20.6924 34.2566 21.6272 34.2566H34.373C35.3078 34.2566 36.0683 33.4962 36.0683 32.5613V23.4395C36.0684 22.5046 35.3078 21.7441 34.3731 21.7441ZM34.4278 32.5613C34.4278 32.5914 34.4033 32.616 34.3731 32.616H21.6272C21.597 32.616 21.5725 32.5914 21.5725 32.5613V23.4395C21.5725 23.4094 21.597 23.3848 21.6272 23.3848H34.373C34.4032 23.3848 34.4277 23.4094 34.4277 23.4395V32.5613H34.4278Z" fill="#19BCE4"/>
<path d="M9.88086 37.8804H11.6929C12.1459 37.8804 12.5132 37.5132 12.5132 37.0601C12.5132 36.6069 12.1459 36.2397 11.6929 36.2397H9.88086C9.42783 36.2397 9.06055 36.6069 9.06055 37.0601C9.06055 37.5132 9.42783 37.8804 9.88086 37.8804Z" fill="#19BCE4"/>
<path d="M44.3083 37.8804H46.1202C46.5733 37.8804 46.9406 37.5132 46.9406 37.0601C46.9406 36.6069 46.5733 36.2397 46.1202 36.2397H44.3083C43.8553 36.2397 43.488 36.6069 43.488 37.0601C43.488 37.5132 43.8553 37.8804 44.3083 37.8804Z" fill="#19BCE4"/>
<path d="M37.0599 45.1284H38.872C39.325 45.1284 39.6923 44.7612 39.6923 44.3081C39.6923 43.855 39.325 43.4878 38.872 43.4878H37.0601C36.607 43.4878 36.2397 43.855 36.2397 44.3081C36.2396 44.7611 36.6069 45.1284 37.0599 45.1284Z" fill="#19BCE4"/>
<path d="M44.3083 45.1284H46.1202C46.5733 45.1284 46.9406 44.7612 46.9406 44.3081C46.9406 43.855 46.5733 43.4878 46.1202 43.4878H44.3083C43.8553 43.4878 43.488 43.855 43.488 44.3081C43.488 44.7611 43.8553 45.1284 44.3083 45.1284Z" fill="#19BCE4"/>
</svg>
