<svg width="56" height="56" viewBox="0 0 56 56" fill="none" xmlns="http://www.w3.org/2000/svg">
<path d="M10.5 22.6405H12.1406C12.7447 22.6405 13.2344 22.1507 13.2344 21.5468V19.9062C13.2344 19.3022 12.7447 18.8125 12.1406 18.8125H10.5C9.89581 18.8125 9.40625 19.3022 9.40625 19.9062V21.5468C9.40625 22.1507 9.89581 22.6405 10.5 22.6405Z" fill="#19BCE4"/>
<path d="M10.5 29.2028H12.1406C12.7447 29.2028 13.2344 28.7131 13.2344 28.1091V26.4683C13.2344 25.8642 12.7447 25.3745 12.1406 25.3745H10.5C9.89581 25.3745 9.40625 25.8642 9.40625 26.4683V28.1091C9.40625 28.7131 9.89581 29.2028 10.5 29.2028Z" fill="#19BCE4"/>
<path d="M10.5 35.7655H12.1406C12.7447 35.7655 13.2344 35.2758 13.2344 34.6718V33.0312C13.2344 32.4273 12.7447 31.9375 12.1406 31.9375H10.5C9.89581 31.9375 9.40625 32.4273 9.40625 33.0312V34.6718C9.40625 35.2757 9.89581 35.7655 10.5 35.7655Z" fill="#19BCE4"/>
<path d="M10.5 42.3279H12.1406C12.7447 42.3279 13.2344 41.8381 13.2344 41.2341V39.5937C13.2344 38.9898 12.7447 38.5 12.1406 38.5H10.5C9.89581 38.5 9.40625 38.9898 9.40625 39.5937V41.2341C9.40625 41.8381 9.89581 42.3279 10.5 42.3279Z" fill="#19BCE4"/>
<path d="M16.2422 22.6405H17.8829C18.4869 22.6405 18.9767 22.1507 18.9767 21.5468V19.9062C18.9767 19.3022 18.4869 18.8125 17.8829 18.8125H16.2422C15.6381 18.8125 15.1484 19.3022 15.1484 19.9062V21.5468C15.1484 22.1507 15.6381 22.6405 16.2422 22.6405Z" fill="#19BCE4"/>
<path d="M16.2422 29.2028H17.8829C18.4869 29.2028 18.9767 28.7131 18.9767 28.1091V26.4683C18.9767 25.8642 18.4869 25.3745 17.8829 25.3745H16.2422C15.6381 25.3745 15.1484 25.8642 15.1484 26.4683V28.1091C15.1484 28.7131 15.6381 29.2028 16.2422 29.2028Z" fill="#19BCE4"/>
<path d="M16.2422 35.7655H17.8829C18.4869 35.7655 18.9767 35.2758 18.9767 34.6718V33.0312C18.9767 32.4273 18.4869 31.9375 17.8829 31.9375H16.2422C15.6381 31.9375 15.1484 32.4273 15.1484 33.0312V34.6718C15.1484 35.2757 15.6381 35.7655 16.2422 35.7655Z" fill="#19BCE4"/>
<path d="M16.2422 42.3279H17.8829C18.4869 42.3279 18.9767 41.8381 18.9767 41.2341V39.5937C18.9767 38.9898 18.4869 38.5 17.8829 38.5H16.2422C15.6381 38.5 15.1484 38.9898 15.1484 39.5937V41.2341C15.1484 41.8381 15.6381 42.3279 16.2422 42.3279Z" fill="#19BCE4"/>
<path d="M21.9836 22.6405H23.6244C24.2284 22.6405 24.7181 22.1507 24.7181 21.5468V19.9062C24.7181 19.3022 24.2284 18.8125 23.6244 18.8125H21.9836C21.3797 18.8125 20.8899 19.3022 20.8899 19.9062V21.5468C20.8899 22.1507 21.3796 22.6405 21.9836 22.6405Z" fill="#19BCE4"/>
<path d="M21.9836 29.2028H23.6244C24.2284 29.2028 24.7181 28.7131 24.7181 28.1091V26.4683C24.7181 25.8642 24.2284 25.3745 23.6244 25.3745H21.9836C21.3797 25.3745 20.8899 25.8642 20.8899 26.4683V28.1091C20.8899 28.7131 21.3796 29.2028 21.9836 29.2028Z" fill="#19BCE4"/>
<path d="M21.9836 35.7655H23.6244C24.2284 35.7655 24.7181 35.2758 24.7181 34.6718V33.0312C24.7181 32.4273 24.2284 31.9375 23.6244 31.9375H21.9836C21.3797 31.9375 20.8899 32.4273 20.8899 33.0312V34.6718C20.8899 35.2757 21.3796 35.7655 21.9836 35.7655Z" fill="#19BCE4"/>
<path d="M21.9836 42.3279H23.6244C24.2284 42.3279 24.7181 41.8381 24.7181 41.2341V39.5937C24.7181 38.9898 24.2284 38.5 23.6244 38.5H21.9836C21.3797 38.5 20.8899 38.9898 20.8899 39.5937V41.2341C20.8899 41.8381 21.3796 42.3279 21.9836 42.3279Z" fill="#19BCE4"/>
<path d="M32.3748 22.6405H34.0154C34.6194 22.6405 35.1091 22.1507 35.1091 21.5468V19.9062C35.1091 19.3022 34.6194 18.8125 34.0154 18.8125H32.3748C31.7706 18.8125 31.281 19.3022 31.281 19.9062V21.5468C31.281 22.1507 31.7706 22.6405 32.3748 22.6405Z" fill="#19BCE4"/>
<path d="M32.3748 16.0784H34.0154C34.6194 16.0784 35.1091 15.5886 35.1091 14.9846V13.3442C35.1091 12.7403 34.6194 12.2505 34.0154 12.2505H32.3748C31.7706 12.2505 31.281 12.7403 31.281 13.3442V14.9846C31.281 15.5886 31.7706 16.0784 32.3748 16.0784Z" fill="#19BCE4"/>
<path d="M32.3748 9.51643H34.0154C34.6194 9.51643 35.1091 9.02665 35.1091 8.42268V6.78173C35.1091 6.17777 34.6194 5.68799 34.0154 5.68799H32.3748C31.7706 5.68799 31.281 6.17777 31.281 6.78173V8.42268C31.281 9.02665 31.7706 9.51643 32.3748 9.51643Z" fill="#19BCE4"/>
<path d="M32.3748 29.2028H34.0154C34.6194 29.2028 35.1091 28.7131 35.1091 28.1091V26.4683C35.1091 25.8642 34.6194 25.3745 34.0154 25.3745H32.3748C31.7706 25.3745 31.281 25.8642 31.281 26.4683V28.1091C31.281 28.7131 31.7706 29.2028 32.3748 29.2028Z" fill="#19BCE4"/>
<path d="M32.3748 35.7655H34.0154C34.6194 35.7655 35.1091 35.2758 35.1091 34.6718V33.0312C35.1091 32.4273 34.6194 31.9375 34.0154 31.9375H32.3748C31.7706 31.9375 31.281 32.4273 31.281 33.0312V34.6718C31.281 35.2757 31.7706 35.7655 32.3748 35.7655Z" fill="#19BCE4"/>
<path d="M32.3748 42.3279H34.0154C34.6194 42.3279 35.1091 41.8381 35.1091 41.2341V39.5937C35.1091 38.9898 34.6194 38.5 34.0154 38.5H32.3748C31.7706 38.5 31.281 38.9898 31.281 39.5937V41.2341C31.281 41.8381 31.7706 42.3279 32.3748 42.3279Z" fill="#19BCE4"/>
<path d="M38.1169 22.6405H39.7576C40.3616 22.6405 40.8513 22.1507 40.8513 21.5468V19.9062C40.8513 19.3022 40.3616 18.8125 39.7576 18.8125H38.1169C37.513 18.8125 37.0232 19.3022 37.0232 19.9062V21.5468C37.0232 22.1507 37.513 22.6405 38.1169 22.6405Z" fill="#19BCE4"/>
<path d="M38.1169 16.0784H39.7576C40.3616 16.0784 40.8513 15.5886 40.8513 14.9846V13.3442C40.8513 12.7403 40.3616 12.2505 39.7576 12.2505H38.1169C37.513 12.2505 37.0232 12.7403 37.0232 13.3442V14.9846C37.0232 15.5886 37.513 16.0784 38.1169 16.0784Z" fill="#19BCE4"/>
<path d="M38.1169 9.51643H39.7576C40.3616 9.51643 40.8513 9.02665 40.8513 8.42268V6.78173C40.8513 6.17777 40.3616 5.68799 39.7576 5.68799H38.1169C37.513 5.68799 37.0232 6.17777 37.0232 6.78173V8.42268C37.0232 9.02665 37.513 9.51643 38.1169 9.51643Z" fill="#19BCE4"/>
<path d="M38.1169 29.2028H39.7576C40.3616 29.2028 40.8513 28.7131 40.8513 28.1091V26.4683C40.8513 25.8642 40.3616 25.3745 39.7576 25.3745H38.1169C37.513 25.3745 37.0232 25.8642 37.0232 26.4683V28.1091C37.0232 28.7131 37.513 29.2028 38.1169 29.2028Z" fill="#19BCE4"/>
<path d="M38.1169 35.7655H39.7576C40.3616 35.7655 40.8513 35.2758 40.8513 34.6718V33.0312C40.8513 32.4273 40.3616 31.9375 39.7576 31.9375H38.1169C37.513 31.9375 37.0232 32.4273 37.0232 33.0312V34.6718C37.0232 35.2757 37.513 35.7655 38.1169 35.7655Z" fill="#19BCE4"/>
<path d="M38.1169 42.3279H39.7576C40.3616 42.3279 40.8513 41.8381 40.8513 41.2341V39.5937C40.8513 38.9898 40.3616 38.5 39.7576 38.5H38.1169C37.513 38.5 37.0232 38.9898 37.0232 39.5937V41.2341C37.0232 41.8381 37.513 42.3279 38.1169 42.3279Z" fill="#19BCE4"/>
<path d="M43.8591 22.6405H45.4996C46.1036 22.6405 46.5934 22.1507 46.5934 21.5468V19.9062C46.5934 19.3022 46.1036 18.8125 45.4996 18.8125H43.8591C43.2552 18.8125 42.7654 19.3022 42.7654 19.9062V21.5468C42.7654 22.1507 43.2552 22.6405 43.8591 22.6405Z" fill="#19BCE4"/>
<path d="M43.8591 16.0784H45.4996C46.1036 16.0784 46.5934 15.5886 46.5934 14.9846V13.3442C46.5934 12.7403 46.1036 12.2505 45.4996 12.2505H43.8591C43.2552 12.2505 42.7654 12.7403 42.7654 13.3442V14.9846C42.7654 15.5886 43.2552 16.0784 43.8591 16.0784Z" fill="#19BCE4"/>
<path d="M43.8591 9.51643H45.4996C46.1036 9.51643 46.5934 9.02665 46.5934 8.42268V6.78173C46.5934 6.17777 46.1036 5.68799 45.4996 5.68799H43.8591C43.2552 5.68799 42.7654 6.17777 42.7654 6.78173V8.42268C42.7654 9.02665 43.2552 9.51643 43.8591 9.51643Z" fill="#19BCE4"/>
<path d="M43.8591 29.2028H45.4996C46.1036 29.2028 46.5934 28.7131 46.5934 28.1091V26.4683C46.5934 25.8642 46.1036 25.3745 45.4996 25.3745H43.8591C43.2552 25.3745 42.7654 25.8642 42.7654 26.4683V28.1091C42.7654 28.7131 43.2552 29.2028 43.8591 29.2028Z" fill="#19BCE4"/>
<path d="M43.8591 35.7655H45.4996C46.1036 35.7655 46.5934 35.2758 46.5934 34.6718V33.0312C46.5934 32.4273 46.1036 31.9375 45.4996 31.9375H43.8591C43.2552 31.9375 42.7654 32.4273 42.7654 33.0312V34.6718C42.7654 35.2757 43.2552 35.7655 43.8591 35.7655Z" fill="#19BCE4"/>
<path d="M43.8591 42.3279H45.4996C46.1036 42.3279 46.5934 41.8381 46.5934 41.2341V39.5937C46.5934 38.9898 46.1036 38.5 45.4996 38.5H43.8591C43.2552 38.5 42.7654 38.9898 42.7654 39.5937V41.2341C42.7654 41.8381 43.2552 42.3279 43.8591 42.3279Z" fill="#19BCE4"/>
<path d="M12.6621 49.4375C12.058 49.4375 11.5684 49.9273 11.5684 50.5312C11.5684 51.1353 12.058 51.625 12.6621 51.625H12.6879C13.2919 51.625 13.7817 51.1353 13.7817 50.5312C13.7817 49.9272 13.2919 49.4375 12.6879 49.4375H12.6621Z" fill="#19BCE4"/>
<path d="M34.5369 49.4375C33.9328 49.4375 33.4431 49.9273 33.4431 50.5312C33.4431 51.1353 33.9328 51.625 34.5369 51.625H34.5626C35.1665 51.625 35.6563 51.1353 35.6563 50.5312C35.6563 49.9273 35.1665 49.4375 34.5626 49.4375H34.5369Z" fill="#19BCE4"/>
<path d="M1.11956 53.8125H1.09375C0.489561 53.8125 0 54.3023 0 54.9063C0 55.5102 0.489561 56 1.09375 56H1.11956C1.72352 56 2.2133 55.5102 2.2133 54.9063C2.2133 54.3022 1.72363 53.8125 1.11956 53.8125Z" fill="#19BCE4"/>
<path d="M54.9067 53.8125H54.8806C54.2765 53.8125 53.7869 54.3023 53.7869 54.9063C53.7869 55.5102 54.2765 56 54.8806 56H54.9067C55.5107 56 56.0004 55.5102 56.0004 54.9063C56.0004 54.3022 55.5106 53.8125 54.9067 53.8125Z" fill="#19BCE4"/>
<path d="M51.7379 53.8123H50.9682V1.09375C50.9682 0.48967 50.4784 0 49.8744 0H27.9999C27.3957 0 26.9061 0.48967 26.9061 1.09375V14.4378H6.12494C5.52075 14.4378 5.03119 14.9276 5.03119 15.5315V53.8123H4.26196C3.65788 53.8123 3.16821 54.3021 3.16821 54.9061C3.16821 55.51 3.65788 55.9998 4.26196 55.9998H6.12494H17.0624H23.6251H27.9999H38.9373H45.4997H49.8744H49.8745H49.8748H51.7379C52.3419 55.9998 52.8316 55.51 52.8316 54.9061C52.8316 54.302 52.3419 53.8123 51.7379 53.8123ZM22.5313 53.8123H18.1561V49.4377H22.5313V53.8123ZM26.9061 53.8123H24.7188V48.3439C24.7188 47.7399 24.2292 47.2502 23.6251 47.2502H17.0624C16.4582 47.2502 15.9686 47.7399 15.9686 48.3439V53.8123H7.21868V51.625H9.51927C10.1232 51.625 10.613 51.1354 10.613 50.5313C10.613 49.9273 10.1232 49.4375 9.51927 49.4375H7.21868V16.6253H26.9061V53.8123ZM44.4059 53.8123H40.0311V49.4377H44.4059V53.8123ZM48.7807 53.8123H46.5934V48.3439C46.5934 47.7399 46.1036 47.2502 45.4997 47.2502H38.9373C38.3332 47.2502 37.8436 47.7399 37.8436 48.3439V53.8123H29.0936V51.625H31.3941C31.9981 51.625 32.4878 51.1354 32.4878 50.5313C32.4878 49.9273 31.9981 49.4375 31.3941 49.4375H29.0936V15.5315V2.18749H48.7807V53.8123Z" fill="#19BCE4"/>
</svg>
